name D:\school\WTK\thesis\model\3dpredictsim\Results\MidTarsalJoint\Fal_s1_bCst_PF_Natali2010_ls150_MT_k800_MTP_T5_ig24_PFx2.mot
datacolumns 128
datarows 4
range 1.67875230 1.71232734
endheader
time	pelvis_tilt	pelvis_list	pelvis_rotation	pelvis_tx	pelvis_ty	pelvis_tz	hip_flexion_l	hip_adduction_l	hip_rotation_l	hip_flexion_r	hip_adduction_r	hip_rotation_r	knee_angle_l	knee_angle_r	ankle_angle_l	ankle_angle_r	subtalar_angle_l	subtalar_angle_r	mtj_angle_l	mtj_angle_r	mtp_angle_l	mtp_angle_r	lumbar_extension	lumbar_bending	lumbar_rotation	arm_flex_l	arm_add_l	arm_rot_l	arm_flex_r	arm_add_r	arm_rot_r	elbow_flex_l	elbow_flex_r	pro_sup_l	pro_sup_r	glut_med1_l/activation	glut_med2_l/activation	glut_med3_l/activation	glut_min1_l/activation	glut_min2_l/activation	glut_min3_l/activation	semimem_l/activation	semiten_l/activation	bifemlh_l/activation	bifemsh_l/activation	sar_l/activation	add_long_l/activation	add_brev_l/activation	add_mag1_l/activation	add_mag2_l/activation	add_mag3_l/activation	tfl_l/activation	pect_l/activation	grac_l/activation	glut_max1_l/activation	glut_max2_l/activation	glut_max3_l/activation	iliacus_l/activation	psoas_l/activation	quad_fem_l/activation	gem_l/activation	peri_l/activation	rect_fem_l/activation	vas_med_l/activation	vas_int_l/activation	vas_lat_l/activation	med_gas_l/activation	lat_gas_l/activation	soleus_l/activation	tib_post_l/activation	flex_dig_l/activation	flex_hal_l/activation	tib_ant_l/activation	per_brev_l/activation	per_long_l/activation	per_tert_l/activation	ext_dig_l/activation	ext_hal_l/activation	ercspn_l/activation	intobl_l/activation	extobl_l/activation	glut_med1_r/activation	glut_med2_r/activation	glut_med3_r/activation	glut_min1_r/activation	glut_min2_r/activation	glut_min3_r/activation	semimem_r/activation	semiten_r/activation	bifemlh_r/activation	bifemsh_r/activation	sar_r/activation	add_long_r/activation	add_brev_r/activation	add_mag1_r/activation	add_mag2_r/activation	add_mag3_r/activation	tfl_r/activation	pect_r/activation	grac_r/activation	glut_max1_r/activation	glut_max2_r/activation	glut_max3_r/activation	iliacus_r/activation	psoas_r/activation	quad_fem_r/activation	gem_r/activation	peri_r/activation	rect_fem_r/activation	vas_med_r/activation	vas_int_r/activation	vas_lat_r/activation	med_gas_r/activation	lat_gas_r/activation	soleus_r/activation	tib_post_r/activation	flex_dig_r/activation	flex_hal_r/activation	tib_ant_r/activation	per_brev_r/activation	per_long_r/activation	per_tert_r/activation	ext_dig_r/activation	ext_hal_r/activation	ercspn_r/activation	intobl_r/activation	extobl_r/activation	
          1.67875230	         -2.93007661	          2.02947043	         -5.08880691	          2.09844037	          0.91956267	          0.00194862	         29.28844631	          3.32038505	         -2.70122035	        -17.27689630	         -0.93796696	          6.33987550	        -11.72408710	         -6.85879319	          5.85424253	         -0.86255914	         -3.81344241	          8.07510751	         -0.06099620	          1.80540258	          0.49904531	         18.54105721	         -2.10345916	         -0.26917393	          1.98035592	         -4.89657375	        -13.45291326	          6.20200040	          4.85579011	        -13.45574892	         16.08095155	         17.05781444	         34.02379249	         86.51662706	         86.51662706	          0.05932636	          0.05932639	          0.05000036	          0.05932646	          0.05932644	          0.05932542	          0.12559303	          0.05932709	          0.21445340	          0.05000076	          0.05000039	          0.13952059	          0.29943906	          0.11430725	          0.15398625	          0.10466510	          0.05000027	          0.05702315	          0.10989016	          0.05000093	          0.05000302	          0.15133840	          0.05000399	          0.05000032	          0.24194895	          0.26895249	          0.12976057	          0.05000607	          0.13171578	          0.13010555	          0.11655499	          0.05134239	          0.05281250	          0.05561305	          0.05000005	          0.05000106	          0.05000043	          0.52722469	          0.25945531	          0.16297361	          0.19511929	          0.46796196	          0.22461045	          0.05932640	          0.11348288	          0.09998476	          0.26292384	          0.09910297	          0.07040302	          0.29326365	          0.19317270	          0.10712495	          0.05000223	          0.05000050	          0.05000028	          0.05932883	          0.10268659	          0.09565246	          0.06977340	          0.05000270	          0.05000460	          0.05000164	          0.30709722	          0.05037225	          0.05000355	          0.05000504	          0.05000387	          0.05000368	          0.39200170	          0.64184153	          0.05000059	          0.05000085	          0.05218701	          0.22543282	          0.05000304	          0.05000283	          0.05000245	          0.28381469	          0.38905152	          0.31106055	          0.29264149	          0.28601360	          0.37527609	          0.05000007	          0.05854961	          0.11540028	          0.05000039	          0.05000011	          0.05000039	          0.05000004	          0.05000037	          0.05160563	
          1.68994398	         -2.92662813	          2.12050415	         -5.36823443	          2.11529100	          0.91862042	          0.00174521	         28.67182605	          3.66673451	         -2.46721124	        -17.14829024	         -1.23566015	          6.14243855	        -11.99385048	         -8.77086543	          5.21477467	         -1.51526541	         -4.18096132	          9.01098407	         -0.09020730	          1.38681372	          0.50870046	         19.87180821	         -1.90515462	         -0.47769724	          2.04560319	         -5.75363244	        -13.45222660	          5.92867998	          4.57367782	        -13.46324457	         16.40673052	         16.67947742	         35.17016536	         86.51662706	         86.51662706	          0.05000001	          0.05000008	          0.10977202	          0.05000008	          0.05000009	          0.05000011	          0.10584939	          0.05000074	          0.18074035	          0.05000019	          0.05934085	          0.11758761	          0.27119806	          0.33345712	          0.21568859	          0.11717918	          0.05000060	          0.07039149	          0.12990844	          0.05296223	          0.08802381	          0.12890351	          0.05000018	          0.07039203	          0.47718794	          0.22667189	          0.10936163	          0.06341093	          0.14959521	          0.15159888	          0.12888537	          0.05000155	          0.06137897	          0.05000006	          0.05932655	          0.05000985	          0.05932637	          0.48891706	          0.31035961	          0.20103294	          0.16444568	          0.42490873	          0.18930067	          0.05000002	          0.09564283	          0.08426667	          0.22159100	          0.08352353	          0.05933537	          0.24716136	          0.16280508	          0.09028444	          0.05000293	          0.05000080	          0.05000135	          0.05000213	          0.08654399	          0.18743253	          0.05932738	          0.05933243	          0.05932679	          0.05932734	          0.25882021	          0.09281298	          0.05000572	          0.05000445	          0.05000350	          0.05000714	          0.33037720	          0.58762532	          0.05000279	          0.05932695	          0.05932659	          0.18999435	          0.13418680	          0.15000790	          0.14040102	          0.23919764	          0.32789075	          0.26216036	          0.25190466	          0.24105156	          0.31628188	          0.05000004	          0.05000015	          0.13003113	          0.05000013	          0.05000004	          0.05000019	          0.05716772	          0.06900848	          0.05696510	
          1.70113566	         -2.91921524	          2.21534453	         -5.62017782	          2.13242132	          0.91771730	          0.00155820	         27.92472012	          3.92325333	         -2.20726599	        -16.94691744	         -1.53342870	          5.93311166	        -12.50186905	        -10.79721300	          4.70314110	         -2.33868422	         -4.57326016	          9.90443370	         -0.12696220	          0.91892567	          0.46289448	         21.15125172	         -1.68780396	         -0.69698860	          2.09931463	         -6.63632839	        -13.45893456	          5.71413230	          4.21770060	        -13.46819448	         16.65907970	         16.34951908	         36.30137388	         86.51662706	         86.51662706	          0.24477266	          0.24070874	          0.30847439	          0.37051641	          0.23793518	          0.22993636	          0.09689969	          0.05000326	          0.15232796	          0.06852950	          0.05001290	          0.09910233	          0.22856452	          0.28103615	          0.18178151	          0.11752623	          0.05000069	          0.05933032	          0.10948770	          0.05000043	          0.11413007	          0.10863962	          0.05426191	          0.05932615	          0.40217172	          0.19103812	          0.22072153	          0.05344247	          0.12607825	          0.12776695	          0.10862408	          0.05000130	          0.05173008	          0.05349549	          0.05000025	          0.05000057	          0.05000093	          0.55612747	          0.30109763	          0.16942972	          0.38254064	          0.50302492	          0.15954391	          0.06342150	          0.11758652	          0.07101955	          0.31794046	          0.07039325	          0.05000761	          0.32591949	          0.13721145	          0.07609135	          0.05000188	          0.05000030	          0.05000022	          0.05000040	          0.07293927	          0.15796744	          0.05000176	          0.05000535	          0.05000172	          0.05000118	          0.25679359	          0.07822494	          0.05000156	          0.05000266	          0.05000148	          0.05000084	          0.27844045	          0.55485672	          0.05000023	          0.05000111	          0.05000040	          0.16012638	          0.11309213	          0.12642609	          0.11832944	          0.20159460	          0.27634473	          0.22094747	          0.21230410	          0.20315728	          0.26656101	          0.05000002	          0.09875472	          0.14992143	          0.05000020	          0.05000008	          0.05000019	          0.05259753	          0.05816002	          0.05000007	
          1.71232734	         -2.90994671	          2.30462042	         -5.83972845	          2.14961974	          0.91687622	          0.00134698	         27.11971783	          4.15840431	         -1.94466713	        -16.63951519	         -1.82256993	          5.72985334	        -12.96435946	        -12.97207926	          4.28356060	         -3.33681590	         -4.96555636	         10.76070888	         -0.14411501	          0.43665120	          0.48180737	         22.28884843	         -1.47396777	         -0.91692205	          2.14386360	         -7.49779737	        -13.46635502	          5.55956176	          3.82425133	        -13.47918678	         16.86441407	         16.04385659	         37.39666961	         86.51662706	         86.51662706	          0.33326648	          0.33280857	          0.35445835	          0.31226996	          0.20133593	          0.19380252	          0.08314787	          0.08639106	          0.12838149	          0.05947742	          0.05000081	          0.08352301	          0.19263315	          0.23685629	          0.17372120	          0.16164132	          0.05000038	          0.05000448	          0.09751828	          0.20873816	          0.17670575	          0.15698643	          0.05000012	          0.05000014	          0.33894842	          0.16100609	          0.18602360	          0.05000007	          0.10626071	          0.15282371	          0.09154923	          0.05000004	          0.05000007	          0.05000001	          0.05000002	          0.05000013	          0.05000013	          0.61153836	          0.29544520	          0.16065837	          0.57204503	          0.53612277	          0.27598459	          0.08384414	          0.09910136	          0.05985494	          0.28902874	          0.05932713	          0.05000016	          0.27468387	          0.11564123	          0.06412948	          0.05000290	          0.05000030	          0.05000026	          0.05000019	          0.06147307	          0.15695604	          0.08769118	          0.05000838	          0.05000777	          0.05000689	          0.22222430	          0.06592937	          0.05000141	          0.05000374	          0.05000267	          0.05000232	          0.23466830	          0.50360678	          0.05000040	          0.05000106	          0.05000022	          0.13495378	          0.12580011	          0.11963719	          0.11758790	          0.16990294	          0.23290199	          0.18621345	          0.17892890	          0.17122011	          0.22465643	          0.05617650	          0.09271518	          0.15360134	          0.05000054	          0.11181804	          0.05000129	          0.08019378	          0.05000002	          0.05000005	
